<?xml version="1.0" standalone="no"?>
<!DOCTYPE svg PUBLIC "-//W3C//DTD SVG 20010904//EN"
 "http://www.w3.org/TR/2001/REC-SVG-20010904/DTD/svg10.dtd">
<svg version="1.0" xmlns="http://www.w3.org/2000/svg"
 width="16.000000pt" height="16.000000pt" viewBox="0 0 16.000000 16.000000"
 preserveAspectRatio="xMidYMid meet">
<metadata>
Created by potrace 1.11, written by Peter Selinger 2001-2013
</metadata>
<g transform="translate(0.000000,16.000000) scale(0.008421,-0.008421)"
fill="#000000" stroke="none">
<path d="M824 933 c2 -82 9 -167 16 -190 9 -28 9 -46 2 -59 -8 -15 -12 -10
-25 33 -24 82 -41 105 -126 176 -44 38 -90 84 -101 103 -21 33 -40 45 -40 24
0 -5 14 -31 30 -57 52 -81 36 -106 -42 -67 -54 27 -81 30 -97 10 -9 -11 0 -18
46 -38 32 -14 66 -28 76 -31 9 -4 17 -11 17 -16 0 -18 -28 -19 -81 0 -63 21
-69 22 -69 9 0 -5 39 -22 88 -37 119 -37 291 -141 306 -185 9 -25 -3 -105 -41
-275 -4 -17 -1 -23 11 -23 9 0 18 12 22 28 21 90 67 259 74 273 15 27 43 46
47 31 9 -24 48 -35 149 -42 93 -6 106 -9 163 -43 35 -20 68 -37 74 -37 20 0
-16 29 -82 63 -46 25 -58 36 -46 41 17 6 115 -13 168 -33 15 -6 27 -7 27 -3
-1 26 -96 92 -133 92 -69 0 9 47 83 50 29 1 31 3 15 10 -11 5 -36 6 -55 3 -32
-6 -34 -5 -21 10 7 10 21 17 30 17 9 0 23 5 31 11 11 8 1 9 -37 6 -29 -2 -53
-1 -53 3 0 4 26 21 58 38 62 34 59 41 -8 17 -59 -21 -59 -20 -44 25 13 38 10
70 -6 70 -4 0 -11 -15 -14 -33 -9 -46 -27 -70 -49 -61 -11 4 -17 17 -17 35 0
29 -2 29 -97 -52 -54 -45 -111 -96 -128 -114 -16 -17 -38 -38 -48 -45 -32 -23
-1 39 43 87 34 37 40 49 40 88 0 49 25 108 59 139 12 11 21 23 21 29 0 5 -18
-7 -41 -27 -46 -43 -73 -44 -77 -3 -4 30 -32 38 -32 8 0 -10 -7 -24 -15 -31
-13 -10 -17 -7 -29 22 -8 19 -18 46 -21 61 -17 66 -24 27 -21 -110z"/>
</g>
</svg>
