<?xml version="1.0" encoding="UTF-8" standalone="no"?>
<svg width="128px" height="64px" viewBox="0 0 128 64" version="1.1" xmlns="http://www.w3.org/2000/svg" xmlns:xlink="http://www.w3.org/1999/xlink">
    <!-- Generator: Sketch 42 (36781) - http://www.bohemiancoding.com/sketch -->
    <title>logo_for_black</title>
    <desc>Created with Sketch.</desc>
    <defs></defs>
    <g id="Page-1" stroke="none" stroke-width="1" fill="none" fill-rule="evenodd">
        <g id="Desktop-Copy-2" transform="translate(-46.000000, -7.000000)">
            <g id="logo_for_black" transform="translate(46.000000, 7.000000)">
                <path d="M98.3037206,9.35120868 C98.3822206,9.34570868 98.4647206,9.33420868 98.5392206,9.33520868 C98.4387206,9.33420868 98.3617206,9.34020868 98.3037206,9.35120868" id="Fill-2" fill="#498A64"></path>
                <path d="M98.6037436,9.33516013 C98.5292436,9.33416013 98.4467436,9.34566013 98.3682436,9.35116013 C97.9662436,9.42616013 98.4952436,9.72166013 98.6037436,9.33516013" id="Fill-4" fill="#498A64"></path>
                <path d="M98.9555562,3.47641673 C98.8560562,3.44841673 98.9275562,3.57591673 98.9555562,3.47641673" id="Fill-8" fill="#FFDD16"></path>
                <path d="M105.922557,13.0491682 C106.428597,11.4990035 106.821882,10.1900696 106.814627,8.65350823 C106.811301,7.94734899 106.661061,7.07825317 106.559188,6.43738947 C106.462152,5.82856896 106.367231,5.29229906 106.176786,4.67320054 C106.018988,4.16050958 106.030778,3.78324642 105.52897,2.63966748 C105.55406,2.69680108 105.503577,2.58253387 105.52897,2.63966748 C105.220025,1.94499541 104.593974,0.998209987 104.082794,0.595554116 C103.53413,0.163273414 103.002395,-0.0495417004 102.320419,0.179899595 C101.654162,0.404201889 100.638454,1.4716027 100.150551,2.0078726 C99.3056389,2.93712497 98.285396,3.82738138 97.5607968,4.98516815 C96.1977522,7.16289555 95.4027185,10.3874677 95.9483595,12.8176108 C96.3032529,14.3989117 97.8213744,16.4137026 98.3712475,18.0784367 C98.6372664,18.8840507 98.9849047,19.8018159 99.1686996,20.6733301 C100.059561,20.9478132 100.950422,21.3069387 101.829795,21.6418807 C101.949806,21.0463611 102.055005,20.3915919 102.330999,19.9448011 C102.553185,19.585071 102.914729,19.5264259 103.120289,19.2156675 C103.663512,18.3955433 103.616052,16.9499725 104.07826,15.9756783 C104.612716,14.8481209 105.437979,14.5334327 105.922557,13.0491682" id="Fill-6" fill="#FFDD16"></path>
                <path d="M93.0656518,20.2305598 C92.1536302,19.7780254 91.4931174,19.5386084 90.8561835,19.1565085 C88.3719298,17.6665004 88.6841997,14.6719741 86.6482483,12.6151644 C85.4635574,11.4183816 83.1250094,10.6804815 81.2610634,10.1617447 C79.9714764,9.80261916 77.1229582,9.02118866 76.1810094,9.97099703 C75.6438327,10.5130105 76.3333657,11.724908 76.4763509,12.3932804 C77.0709636,15.1755962 77.7556599,17.1649943 79.5633792,19.1072345 C80.3928745,19.9983978 81.6359082,21.4702683 82.6706613,21.9285463 C84.2843077,22.6428675 85.7564804,21.9911212 87.1458246,22.3067163 C89.0542078,22.7402062 90.6563671,23.4379012 92.5783536,24.3668513 C92.6460675,24.3994991 92.7137814,24.4312399 92.7814953,24.4629808 C93.2899541,23.4545274 93.8322699,22.4654208 94.4202321,21.5020092 C94.0354116,21.018943 93.7343266,20.5621765 93.0656518,20.2305598" id="Fill-10" fill="#FFDD16"></path>
                <path d="M125.62582,26.8941215 C123.795127,25.0830769 121.217464,23.5752335 118.564832,23.5534683 C117.149491,23.5419811 116.167942,24.2000756 115.04643,24.9981323 C114.203332,25.5981862 113.221178,26.2472119 113.317307,24.7366478 C113.387137,23.6423428 114.327877,22.6873954 114.351758,21.518726 C114.379872,20.1287773 113.306123,19.0417274 112.232071,18.2769231 C111.001734,17.4002699 109.734214,17.2240324 108.254484,17.2445884 C107.564347,17.2542618 105.739699,17.0432605 105.337345,17.7817652 C104.860627,18.6556977 105.909588,18.9259487 106.369982,19.4452901 C107.375715,20.579498 107.511143,22.3808691 106.570403,23.5951849 C106.10094,24.2009825 105.097626,24.4803023 104.852163,25.0761242 C104.774776,25.2641511 104.86093,25.8481835 104.832816,26.0903212 C104.734268,26.9391633 104.383002,27.5936302 104.603979,28.4654467 C105.097021,30.4088961 108.057388,33.0754332 110.094247,32.4980513 C111.190063,32.1872928 111.616298,31.377749 112.647726,31.9626883 C113.802792,32.6174575 114.487186,33.9838273 115.765588,34.493193 C118.225658,35.4732308 121.734992,33.3097112 123.552384,31.7819163 C125.0566,30.5174197 125.438398,28.6933765 127.854938,29.3714224 C128.127607,28.398942 126.187181,27.4494359 125.62582,26.8941215 C124.870992,26.1474548 126.017291,27.2813603 125.62582,26.8941215" id="Fill-12" fill="#FFDD16"></path>
                <path d="M114.197014,29.4176734 C114.352393,28.8638704 112.879918,28.0038435 112.625991,27.8236761 C112.387481,27.6543914 111.890811,27.1967179 111.455205,26.9923671 C110.678914,26.6284049 110.305278,26.7880162 109.42923,26.5425533 C110.353343,25.3968583 112.183734,25.1284211 113.682207,25.4289015 C113.308873,24.4815115 111.310104,25.0528475 110.502979,25.1136086 C111.22395,24.0489285 111.792566,24.3028556 112.67073,23.8956653 C112.862989,23.8095115 113.055551,23.7233576 113.24781,23.6372038 C112.181014,23.3603023 111.015367,23.8615061 110.011751,23.7850256 C110.987254,22.4534197 112.940981,22.4464669 113.503551,21.4165506 C112.279562,21.8699919 111.001764,22.4821377 109.880555,22.5362483 C110.179222,21.7974413 111.330358,19.8899649 110.042585,19.2179649 C109.798029,20.2209771 109.64537,23.0175007 108.257235,21.9848637 C107.330703,21.2956329 108.237586,20.7563401 107.949802,20.1686802 C107.854579,20.5081565 106.230352,21.6771282 105.89934,21.9960486 C105.099168,22.7665965 104.375475,23.4083671 103.595859,24.0407665 C103.13486,24.4147045 102.63547,24.5746181 102.290855,24.9240702 C102.042066,25.1764858 101.886083,25.5740027 101.659362,25.8043509 C101.458941,26.0080972 100.131265,27.4899433 99.7730462,27.3892794 C100.000069,25.7907476 100.487367,25.5407503 101.449872,24.4960216 C101.904825,24.0017706 102.392123,23.5401673 102.532992,22.7892686 C102.669327,22.0619487 102.407238,21.2403131 102.594056,20.5882645 C102.771502,19.9697706 103.508193,18.7790337 103.98733,18.1919784 C104.276021,17.8382942 105.185321,17.3857598 104.921721,16.9162969 C104.542342,17.4767503 103.798093,17.9341215 103.352512,18.3984453 C102.928393,18.8403995 102.166309,19.8609447 101.434757,18.7252254 C101.053564,18.1333333 102.029975,17.7491174 100.843772,17.4063158 C100.615842,18.2188826 100.474973,18.5774035 100.051761,19.2022456 C99.0284955,18.9150661 98.9214834,15.617641 98.0502715,15.373085 C97.9668383,16.4707152 98.0777803,17.0689555 98.1775374,18.0036491 C98.2168356,18.3739595 98.4024443,18.9585965 98.4511136,19.4259433 C98.5136885,20.0272065 98.2730623,20.8966046 98.2325549,21.5752551 C98.1896291,22.294413 98.3483336,23.5954872 98.5127816,24.3448745 C98.6116318,24.794386 98.8936723,25.2139703 98.9257155,25.6139055 C98.9789193,26.2798596 98.8202148,26.6746559 98.653953,27.2677571 C98.2116966,27.1435142 97.8060178,25.0939595 97.650034,24.6795142 C97.2485873,23.6130202 96.7803336,22.7539001 95.8834267,22.0695061 C94.8943201,21.3146775 94.3229841,20.6556761 93.2540718,19.7941377 C92.727173,19.3694143 92.359281,19.0178462 91.9644848,18.5671255 C91.8033619,18.3833306 90.9463579,16.6578354 90.5325171,16.819865 C89.8414726,17.0907206 91.0403714,18.1817004 91.1624982,18.3422186 C91.6900016,19.0356815 92.9173161,20.9700621 91.663702,21.2378947 C90.355675,21.5175169 88.324258,18.625166 87.1444038,20.6750229 C88.4699638,21.490915 89.8928626,21.918359 91.5131595,22.5734305 C90.7773754,24.3243185 88.2381042,22.1780297 87.036787,22.0864345 C86.7520259,23.1012362 91.7087439,23.9917949 92.029478,24.1598704 C92.7314051,24.5277625 93.2743255,25.1544184 94.0318748,25.5863968 C95.2987897,26.3094845 97.575065,27.0564534 98.2899908,28.5975493 C98.7742661,29.6416734 97.4381258,34.915498 96.8785792,37.0448583 L97.7434429,37.0448583 C98.1282634,35.3689393 99.1899206,31.2958273 99.3812729,30.4992821 C99.6382229,29.4291606 99.8631298,28.5425317 100.588938,27.906807 C100.739783,27.7747045 101.1373,27.6655762 101.209548,27.4080216 C101.510331,27.4923617 101.604344,28.0579541 101.836506,28.2565614 C102.272112,28.6292901 103.046288,28.7239082 103.415087,28.795552 C104.660539,29.0376896 105.937732,28.8995412 106.834941,28.9382348 C109.313149,29.0443401 110.61785,30.8163887 112.502957,31.3451012 C112.683729,30.7012146 108.840663,28.8532901 108.180755,28.5948286 C108.912911,27.5138246 113.179794,29.1323077 114.197014,29.4176734" id="Fill-14" fill="#8CC63F"></path>
                <polygon id="Fill-16" fill="#FEFEFE" points="0.46205668 41.9374596 1.48985695 41.9374596 1.48985695 56.0860372 15.6683617 41.9374596 17.0891444 41.9374596 7.8685668 51.0374219 17.4518974 63.0995649 16.121803 63.0995649 7.14306073 51.7323962 1.48985695 57.3251412 1.48985695 63.0995649 0.46205668 63.0995649"></polygon>
                <path d="M21.4068426,53.9695849 L21.4068426,41.937369 L22.4346429,41.937369 L22.4346429,53.909126 C22.4346429,59.5321004 25.4575849,62.4948858 30.0530613,62.4948858 C34.6180059,62.4948858 37.5804891,59.6530181 37.5804891,53.9695849 L37.5804891,41.937369 L38.6082893,41.937369 L38.6082893,53.8788966 C38.6082893,60.1974499 35.1316038,63.4319978 30.0225296,63.4319978 C24.943987,63.4319978 21.4068426,60.2273771 21.4068426,53.9695849" id="Fill-18" fill="#FEFEFE"></path>
                <polygon id="Fill-20" fill="#FEFEFE" points="44.8644794 41.9374596 45.8922796 41.9374596 45.8922796 56.0860372 60.0710866 41.9374596 61.4918694 41.9374596 52.2712918 51.0374219 61.8546224 63.0995649 60.5245279 63.0995649 51.5457857 51.7323962 45.8922796 57.3251412 45.8922796 63.0995649 44.8644794 63.0995649"></polygon>
                <polygon id="Fill-22" fill="#FEFEFE" points="66.599553 41.9374596 67.6273533 41.9374596 67.6273533 56.0860372 81.8061603 41.9374596 83.226943 41.9374596 74.0063655 51.0374219 83.5896961 63.0995649 82.2596016 63.0995649 73.2808594 51.7323962 67.6273533 57.3251412 67.6273533 63.0995649 66.599553 63.0995649"></polygon>
                <path d="M102.996772,55.9950165 L96.8901269,42.9957614 L90.8137112,55.9950165 L102.996772,55.9950165 Z M96.4366856,41.7862823 L97.404027,41.7862823 L107.440799,63.0995347 L106.32231,63.0995347 L103.450213,56.9324308 L90.3599676,56.9324308 L87.4579433,63.0995347 L86.3999136,63.0995347 L96.4366856,41.7862823 Z" id="Fill-24" fill="#FEFEFE"></path>
                <path d="M110.276621,60.0157711 L110.971897,59.2600356 C113.208874,61.3763973 115.687989,62.4646564 118.771692,62.4646564 C122.429452,62.4646564 124.817879,60.4692124 124.817879,57.8090235 L124.817879,57.7485646 C124.817879,55.2697522 123.396794,53.9393555 118.288022,52.8810235 C113.118186,51.8535255 111.092815,50.2211368 111.092815,47.1676632 L111.092815,47.1072043 C111.092815,44.0839601 113.964912,41.6350748 117.955196,41.6350748 C120.857522,41.6350748 123.15526,42.5422596 125.150402,44.1141895 L124.515584,44.9306861 C122.580599,43.3886834 120.373852,42.5724891 117.894737,42.5724891 C114.418354,42.5724891 112.120918,44.658319 112.120918,47.0165161 L112.120918,47.0766726 C112.120918,49.5255579 113.5417,50.8861841 118.681004,51.9442138 C123.941225,53.0022435 125.845679,54.695091 125.845679,57.6578764 L125.845679,57.7180329 C125.845679,60.9834148 123.03404,63.4017684 118.710931,63.4017684 C115.415924,63.4017684 112.664745,62.2228211 110.276621,60.0157711" id="Fill-26" fill="#FEFEFE"></path>
            </g>
        </g>
    </g>
</svg>