<?xml version="1.0" encoding="UTF-8" standalone="no"?>
<svg width="29px" height="43px" viewBox="0 0 29 43" version="1.1" xmlns="http://www.w3.org/2000/svg" xmlns:xlink="http://www.w3.org/1999/xlink">
    <!-- Generator: Sketch 42 (36781) - http://www.bohemiancoding.com/sketch -->
    <title>Artboard</title>
    <desc>Created with Sketch.</desc>
    <defs>
        <polygon id="path-1" points="-1.06215221e-15 0.0044576338 -1.06215221e-15 42.7054795 28.7324227 42.7054795 28.7324227 0.00441780822 -1.06215221e-15 0.00441780822 -8.16272696e-05 42.7055089 28.7324174 42.7055089 28.7324174 0.0044576338 -1.06212511e-15 0.0044576338"></polygon>
    </defs>
    <g id="Page-1" stroke="none" stroke-width="1" fill="none" fill-rule="evenodd">
        <g id="Artboard">
            <g id="Page-1">
                <g id="Group-3" transform="translate(0.000000, 0.290103)">
                    <mask id="mask-2" fill="white">
                        <use xlink:href="#path-1"></use>
                    </mask>
                    <g id="Clip-2"></g>
                </g>
                <path d="M21.6445536,14.4972144 C21.6092753,10.5544678 18.2566361,7.28823493 14.2961928,7.3380089 C10.3943474,7.38719384 7.14036804,10.6478308 7.12512062,14.5237212 C7.1098732,18.4063856 10.5208113,21.7282829 14.4639144,21.6708514 C18.373832,21.6140089 21.6786361,18.312139 21.6445536,14.4972144 M14.3748216,42.9956116 C10.8774814,36.9650089 7.40734742,31.0834336 4.04962577,25.1403034 C2.7066567,22.7635226 1.19925464,20.3622966 0.479337113,17.7796459 C-1.69476598,9.97750205 3.77816186,1.83430342 11.7887392,0.504837671 C20.1682443,-0.885888356 27.8251412,4.77302945 28.6538835,13.0069404 C28.9704918,16.1530089 28.3315948,19.0958582 26.7046052,21.8702418 C22.6777907,28.7369884 18.7272134,35.6476185 14.7428526,42.5388103 C14.6719969,42.6616253 14.5637701,42.7635295 14.3748216,42.9956116" id="Fill-1" fill="#8BC53F"></path>
                <path d="M21.6258082,14.4972144 C21.6598907,18.312139 18.3550866,21.6140089 14.4451691,21.6708514 C10.502066,21.7282829 7.09112784,18.4063856 7.10637526,14.5237212 C7.12162268,10.6478308 10.3756021,7.38719384 14.2774474,7.3380089 C18.2378907,7.28823493 21.5905299,10.5544678 21.6258082,14.4972144" id="Fill-4" fill="#FFDD14"></path>
            </g>
        </g>
    </g>
</svg>